<?xml version="1.0" encoding="UTF-8"?>
<svg id="Layer_2" data-name="Layer 2" xmlns="http://www.w3.org/2000/svg" viewBox="0 0 412.09 242.39">
  <defs>
    <style>
      .cls-1 {
        fill: #f0f0f0;
      }

      .cls-2, .cls-3, .cls-4, .cls-5, .cls-6, .cls-7, .cls-8, .cls-9, .cls-10 {
        fill: #fff;
      }

      .cls-3, .cls-11, .cls-12, .cls-13 {
        stroke-width: .55px;
      }

      .cls-3, .cls-11, .cls-14 {
        stroke: #1a2e35;
      }

      .cls-3, .cls-11, .cls-14, .cls-15 {
        stroke-miterlimit: 10;
      }

      .cls-16 {
        fill: #b94d3c;
      }

      .cls-17 {
        fill: #fc5652;
      }

      .cls-18 {
        fill: #fdb470;
      }

      .cls-19 {
        fill: #fe8835;
      }

      .cls-20 {
        fill: #f5f5f5;
      }

      .cls-11, .cls-21, .cls-12, .cls-14, .cls-13, .cls-15 {
        fill: none;
      }

      .cls-4, .cls-5, .cls-22 {
        opacity: .3;
      }

      .cls-23, .cls-5, .cls-8, .cls-24, .cls-25, .cls-10 {
        isolation: isolate;
      }

      .cls-23, .cls-26 {
        fill: #1a2e35;
      }

      .cls-27, .cls-24, .cls-10 {
        opacity: .2;
      }

      .cls-6 {
        opacity: .5;
      }

      .cls-7 {
        opacity: .8;
      }

      .cls-8, .cls-9, .cls-25 {
        opacity: .7;
      }

      .cls-28 {
        fill: #e1e1e1;
      }

      .cls-29 {
        fill: #e7e7e7;
      }

      .cls-30 {
        fill: #007cff;
      }

      .cls-21, .cls-12 {
        stroke: #000;
      }

      .cls-21, .cls-12, .cls-13 {
        stroke-linecap: round;
        stroke-linejoin: round;
      }

      .cls-21, .cls-31 {
        opacity: .1;
      }

      .cls-21, .cls-14 {
        stroke-width: .27px;
      }

      .cls-32 {
        fill: #cd7a63;
      }

      .cls-13 {
        stroke: #fff;
      }

      .cls-33 {
        fill: #ececec;
      }

      .cls-15 {
        stroke: #007cff;
        stroke-width: .14px;
      }
    </style>
  </defs>
  <g id="Layer_1-2" data-name="Layer 1">
    <path class="cls-28" d="m160.27,78.82c-2.45,3.73-4.09,7.82-4.97,12.04l-6.72.63v13.02s6.73.63,6.73.63c.88,4.22,2.52,8.32,4.97,12.04l-4.3,5.19,9.21,9.21,5.19-4.29c3.73,2.45,7.82,4.09,12.04,4.97l.63,6.73h13.02s.63-6.72.63-6.72c4.22-.88,8.32-2.52,12.04-4.97l5.19,4.29,9.21-9.21-4.29-5.19c2.45-3.73,4.09-7.82,4.97-12.04l6.72-.63v-13.02s-6.72-.63-6.72-.63c-.88-4.22-2.52-8.31-4.97-12.04l4.3-5.19-9.21-9.21-5.19,4.3c-3.73-2.45-7.82-4.09-12.04-4.97l-.63-6.73h-13.02s-.63,6.73-.63,6.73c-4.22.88-8.32,2.52-12.04,4.97l-5.19-4.3-9.21,9.21,4.3,5.19Zm41.76,6.72c6.88,6.89,6.88,18.05,0,24.93-6.89,6.89-18.05,6.89-24.93,0-6.89-6.89-6.88-18.05,0-24.93,6.89-6.88,18.05-6.88,24.93,0Z"/>
    <path class="cls-28" d="m100.85,56.05c-1.38,2.1-2.3,4.4-2.8,6.78l-3.78.36v7.33s3.78.36,3.78.36c.49,2.38,1.42,4.68,2.8,6.78l-2.42,2.92,5.18,5.18,2.92-2.42c2.1,1.38,4.4,2.3,6.78,2.8l.36,3.79h7.33s.36-3.78.36-3.78c2.38-.49,4.68-1.42,6.78-2.8l2.92,2.42,5.18-5.18-2.42-2.92c1.38-2.1,2.3-4.4,2.8-6.78l3.78-.36v-7.33s-3.78-.36-3.78-.36c-.49-2.38-1.42-4.68-2.8-6.78l2.42-2.92-5.18-5.18-2.92,2.42c-2.1-1.38-4.4-2.3-6.78-2.8l-.36-3.78h-7.33s-.36,3.79-.36,3.79c-2.38.49-4.68,1.42-6.78,2.8l-2.92-2.42-5.18,5.18,2.42,2.92Zm23.5,3.78c3.87,3.87,3.87,10.16,0,14.03-3.88,3.88-10.16,3.87-14.03,0-3.88-3.88-3.87-10.16,0-14.03,3.87-3.87,10.16-3.87,14.03,0Z"/>
    <path class="cls-28" d="m120.63,24.2c-.69,1.05-1.15,2.2-1.4,3.39l-1.89.18v3.66s1.89.18,1.89.18c.25,1.19.71,2.34,1.4,3.39l-1.21,1.46,2.59,2.59,1.46-1.21c1.05.69,2.2,1.15,3.39,1.4l.18,1.89h3.66s.18-1.89.18-1.89c1.19-.25,2.34-.71,3.39-1.4l1.46,1.21,2.59-2.59-1.21-1.46c.69-1.05,1.15-2.2,1.4-3.39l1.89-.18v-3.66s-1.89-.18-1.89-.18c-.25-1.19-.71-2.34-1.4-3.39l1.21-1.46-2.59-2.59-1.46,1.21c-1.05-.69-2.2-1.15-3.39-1.4l-.18-1.89h-3.66s-.18,1.89-.18,1.89c-1.19.25-2.34.71-3.39,1.4l-1.46-1.21-2.59,2.59,1.21,1.46Zm11.75,1.89c1.94,1.94,1.94,5.08,0,7.01s-5.08,1.94-7.01,0c-1.94-1.94-1.94-5.08,0-7.01,1.94-1.94,5.08-1.94,7.01,0Z"/>
    <g>
      <rect class="cls-29" x="61.71" y="98.7" width="27.95" height="35.91" rx="3.51" ry="3.51" transform="translate(-21.1 16.8) rotate(-11.13)"/>
      <rect class="cls-1" x="65.15" y="106.69" width="17.61" height="2.38" rx="1.19" ry="1.19" transform="translate(-19.44 16.31) rotate(-11.13)"/>
      <rect class="cls-1" x="66.33" y="112.67" width="17.61" height="2.38" rx="1.19" ry="1.19" transform="translate(-20.57 16.65) rotate(-11.13)"/>
      <rect class="cls-1" x="67.51" y="118.66" width="17.61" height="2.38" rx="1.19" ry="1.19" transform="translate(-21.7 16.99) rotate(-11.13)"/>
      <rect class="cls-1" x="68.76" y="125.45" width="9.28" height="2.38" rx="1.19" ry="1.19" transform="translate(-23.07 16.55) rotate(-11.13)"/>
    </g>
    <g>
      <rect class="cls-29" x="98.48" y="138.48" width="18.93" height="24.32" rx="3.51" ry="3.51" transform="translate(18.62 -11.73) rotate(6.81)"/>
      <path class="cls-1" d="m113.68,146.03l-10.24-1.22c-.44-.05-.76-.45-.71-.9h0c.05-.44.45-.76.9-.71l10.24,1.22c.44.05.76.45.71.9h0c-.05.44-.45.76-.9.71Z"/>
      <path class="cls-1" d="m113.19,150.14l-10.24-1.22c-.44-.05-.76-.45-.71-.9h0c.05-.44.45-.76.9-.71l10.24,1.22c.44.05.76.45.71.9h0c-.05.44-.45.76-.9.71Z"/>
      <path class="cls-1" d="m112.7,154.24l-10.24-1.22c-.44-.05-.76-.45-.71-.9h0c.05-.44.45-.76.9-.71l10.24,1.22c.44.05.76.45.71.9h0c-.05.44-.45.76-.9.71Z"/>
      <path class="cls-1" d="m106.61,157.67l-4.63-.55c-.44-.05-.76-.45-.71-.9h0c.05-.44.45-.76.9-.71l4.63.55c.44.05.76.45.71.9h0c-.05.44-.45.76-.9.71Z"/>
    </g>
    <g>
      <rect class="cls-29" x="346.56" y="68.84" width="22.78" height="29.27" rx="3.51" ry="3.51" transform="translate(52.89 -121.54) rotate(20.78)"/>
      <rect class="cls-1" x="353.36" y="75.69" width="14.35" height="1.94" rx=".97" ry=".97" transform="translate(50.64 -122.9) rotate(20.78)"/>
      <rect class="cls-1" x="351.6" y="80.34" width="14.35" height="1.94" rx=".97" ry=".97" transform="translate(52.17 -121.97) rotate(20.78)"/>
      <rect class="cls-1" x="349.83" y="84.99" width="14.35" height="1.94" rx=".97" ry=".97" transform="translate(53.71 -121.05) rotate(20.78)"/>
      <rect class="cls-1" x="348.29" y="88.43" width="7.56" height="1.94" rx=".97" ry=".97" transform="translate(54.61 -119.07) rotate(20.78)"/>
    </g>
    <g>
      <rect class="cls-28" x="212.11" y="13.83" width="7.3" height="8.64" rx="1.57" ry="1.57"/>
      <rect class="cls-28" x="223.09" y="7.11" width="7.3" height="15.36" rx="1.57" ry="1.57"/>
      <rect class="cls-28" x="234.91" y=".47" width="7.3" height="22.19" rx="1.57" ry="1.57"/>
    </g>
    <path class="cls-28" d="m261.87,127.59c-1.33,2.02-2.22,4.24-2.69,6.52l-3.64.34v7.05s3.64.34,3.64.34c.47,2.29,1.37,4.5,2.69,6.52l-2.33,2.81,4.99,4.99,2.81-2.33c2.02,1.33,4.24,2.22,6.52,2.69l.34,3.64h7.05s.34-3.64.34-3.64c2.29-.47,4.5-1.37,6.52-2.69l2.81,2.33,4.99-4.99-2.33-2.81c1.32-2.02,2.22-4.24,2.69-6.52l3.64-.34v-7.05s-3.64-.34-3.64-.34c-.47-2.29-1.37-4.5-2.69-6.52l2.33-2.81-4.99-4.99-2.81,2.33c-2.02-1.33-4.24-2.22-6.52-2.69l-.34-3.64h-7.05s-.34,3.64-.34,3.64c-2.29.47-4.5,1.37-6.52,2.69l-2.81-2.33-4.99,4.99,2.33,2.81Zm22.61,3.64c3.73,3.73,3.73,9.77,0,13.5-3.73,3.73-9.77,3.73-13.5,0-3.73-3.73-3.73-9.77,0-13.5,3.73-3.73,9.77-3.73,13.5,0Z"/>
    <path class="cls-28" d="m305.53,144.28c-.63.95-1.05,2-1.27,3.08l-1.72.16v3.33s1.72.16,1.72.16c.22,1.08.64,2.12,1.27,3.08l-1.1,1.33,2.35,2.35,1.33-1.1c.95.63,2,1.05,3.08,1.27l.16,1.72h3.33s.16-1.72.16-1.72c1.08-.22,2.12-.64,3.08-1.27l1.33,1.1,2.35-2.35-1.1-1.33c.63-.95,1.05-2,1.27-3.08l1.72-.16v-3.33s-1.72-.16-1.72-.16c-.22-1.08-.64-2.12-1.27-3.08l1.1-1.33-2.35-2.35-1.33,1.1c-.95-.63-2-1.05-3.08-1.27l-.16-1.72h-3.33s-.16,1.72-.16,1.72c-1.08.22-2.12.64-3.08,1.27l-1.33-1.1-2.35,2.35,1.1,1.33Zm10.67,1.72c1.76,1.76,1.76,4.61,0,6.37-1.76,1.76-4.61,1.76-6.37,0-1.76-1.76-1.76-4.61,0-6.37,1.76-1.76,4.61-1.76,6.37,0Z"/>
    <path class="cls-20" d="m275.94,93.64c-.63.95-1.05,2-1.27,3.08l-1.72.16v3.33s1.72.16,1.72.16c.22,1.08.64,2.12,1.27,3.08l-1.1,1.33,2.35,2.35,1.33-1.1c.95.63,2,1.05,3.08,1.27l.16,1.72h3.33s.16-1.72.16-1.72c1.08-.22,2.12-.64,3.08-1.27l1.33,1.1,2.35-2.35-1.1-1.33c.63-.95,1.05-2,1.27-3.08l1.72-.16v-3.33s-1.72-.16-1.72-.16c-.22-1.08-.64-2.12-1.27-3.08l1.1-1.33-2.35-2.35-1.33,1.1c-.95-.63-2-1.05-3.08-1.27l-.16-1.72h-3.33s-.16,1.72-.16,1.72c-1.08.22-2.12.64-3.08,1.27l-1.33-1.1-2.35,2.35,1.1,1.33Zm10.67,1.72c1.76,1.76,1.76,4.61,0,6.37-1.76,1.76-4.61,1.76-6.37,0s-1.76-4.61,0-6.37c1.76-1.76,4.61-1.76,6.37,0Z"/>
    <path class="cls-20" d="m303.07,105.86c-1.17,1.79-1.96,3.75-2.38,5.78l-3.23.3v6.25s3.23.3,3.23.3c.42,2.03,1.21,3.99,2.38,5.78l-2.06,2.49,4.42,4.42,2.49-2.06c1.79,1.17,3.75,1.96,5.78,2.38l.3,3.23h6.25s.3-3.23.3-3.23c2.03-.42,3.99-1.21,5.78-2.38l2.49,2.06,4.42-4.42-2.06-2.49c1.17-1.79,1.96-3.75,2.38-5.78l3.23-.3v-6.25s-3.23-.3-3.23-.3c-.42-2.03-1.21-3.99-2.38-5.78l2.06-2.49-4.42-4.42-2.49,2.06c-1.79-1.17-3.75-1.96-5.78-2.38l-.3-3.23h-6.25s-.3,3.23-.3,3.23c-2.03.42-3.99,1.21-5.78,2.38l-2.49-2.06-4.42,4.42,2.06,2.49Zm20.03,3.22c3.3,3.3,3.3,8.66,0,11.96-3.3,3.3-8.66,3.3-11.96,0-3.3-3.3-3.3-8.66,0-11.96,3.3-3.3,8.66-3.3,11.96,0Z"/>
    <path class="cls-20" d="m80.37,18.71c-1.03,1.56-1.72,3.28-2.08,5.05l-2.82.27v5.46s2.82.27,2.82.27c.37,1.77,1.06,3.48,2.08,5.05l-1.8,2.17,3.86,3.86,2.17-1.8c1.56,1.03,3.28,1.72,5.05,2.08l.27,2.82h5.46s.27-2.82.27-2.82c1.77-.37,3.49-1.06,5.05-2.08l2.17,1.8,3.86-3.86-1.8-2.17c1.03-1.56,1.72-3.28,2.08-5.05l2.82-.27v-5.46s-2.82-.27-2.82-.27c-.37-1.77-1.06-3.48-2.08-5.05l1.8-2.17-3.86-3.86-2.17,1.8c-1.56-1.03-3.28-1.72-5.05-2.08l-.27-2.82h-5.46s-.27,2.82-.27,2.82c-1.77.37-3.48,1.06-5.05,2.08l-2.17-1.8-3.86,3.86,1.8,2.17Zm17.5,2.82c2.89,2.89,2.89,7.56,0,10.45-2.89,2.89-7.56,2.89-10.45,0s-2.89-7.56,0-10.45c2.89-2.89,7.56-2.89,10.45,0Z"/>
    <g>
      <g>
        <g>
          <g>
            <path class="cls-28" d="m370.18,151.1h-99.31c-1.78,0-3.22-1.44-3.22-3.22V3.22c0-1.78,1.44-3.22,3.22-3.22h99.31c1.78,0,3.22,1.44,3.22,3.22v144.65c0,1.78-1.44,3.22-3.22,3.22ZM270.87.14c-1.7,0-3.08,1.38-3.08,3.08v144.65c0,1.7,1.38,3.08,3.08,3.08h99.31c1.7,0,3.08-1.38,3.08-3.08V3.22c0-1.7-1.38-3.08-3.08-3.08h-99.31Z"/>
            <path class="cls-28" d="m255.66,151.1h-99.31c-1.78,0-3.22-1.44-3.22-3.22V3.22c0-1.78,1.44-3.22,3.22-3.22h99.31c1.78,0,3.22,1.44,3.22,3.22v144.65c0,1.78-1.44,3.22-3.22,3.22ZM156.35.14c-1.7,0-3.08,1.38-3.08,3.08v144.65c0,1.7,1.38,3.08,3.08,3.08h99.31c1.7,0,3.08-1.38,3.08-3.08V3.22c0-1.7-1.38-3.08-3.08-3.08h-99.31Z"/>
          </g>
          <path class="cls-28" d="m141.21,151.1H41.9c-1.78,0-3.22-1.44-3.22-3.22V3.22c0-1.78,1.44-3.22,3.22-3.22h99.31c1.78,0,3.22,1.44,3.22,3.22v144.65c0,1.78-1.44,3.22-3.22,3.22ZM41.9.14c-1.7,0-3.08,1.38-3.08,3.08v144.65c0,1.7,1.38,3.08,3.08,3.08h99.31c1.7,0,3.08-1.38,3.08-3.08V3.22c0-1.7-1.38-3.08-3.08-3.08H41.9Z"/>
        </g>
        <rect class="cls-28" y="184.65" width="412.09" height=".07"/>
      </g>
      <g>
        <rect class="cls-33" x="359.13" y="200.79" width="30.62" height=".23"/>
        <rect class="cls-33" x="272" y="203.3" width="8.04" height=".23"/>
        <rect class="cls-33" x="22.33" y="193.76" width="39.93" height=".23"/>
        <rect class="cls-33" x="70.49" y="193.76" width="5.85" height=".23"/>
        <rect class="cls-33" x="95.38" y="197.66" width="86.6" height=".23"/>
      </g>
    </g>
    <path class="cls-20" d="m345.81,229.92c0,1.86-62.58,3.37-139.77,3.37s-139.77-1.51-139.77-3.37,62.58-3.37,139.77-3.37,139.77,1.51,139.77,3.37Z"/>
    <g>
      <g>
        <rect class="cls-30" x="39.16" y="46.55" width="62.29" height="36.97" rx="4.09" ry="4.09"/>
        <rect class="cls-7" x="39.16" y="46.55" width="62.29" height="36.97" rx="4.09" ry="4.09"/>
      </g>
      <path class="cls-14" d="m48.52,67.09c.27-.24,7.56-7.44,7.56-7.44l7.19,3.54,7.03-8.27,7.19,10.36,7.01-4.58"/>
      <rect class="cls-30" x="47.4" y="70.33" width="3.37" height="7.47"/>
      <rect class="cls-30" x="54.35" y="65.39" width="3.37" height="12.41"/>
      <rect class="cls-30" x="61.42" y="66.64" width="3.37" height="11.16"/>
      <rect class="cls-30" x="68.62" y="59.65" width="3.37" height="18.15"/>
      <rect class="cls-30" x="75.89" y="69.27" width="3.37" height="8.53"/>
      <path class="cls-30" d="m50.9,66.24c0,1-.81,1.81-1.81,1.81s-1.81-.81-1.81-1.81.81-1.81,1.81-1.81,1.81.81,1.81,1.81Z"/>
      <path class="cls-30" d="m57.84,59.65c0,1-.81,1.81-1.81,1.81s-1.81-.81-1.81-1.81.81-1.81,1.81-1.81,1.81.81,1.81,1.81Z"/>
      <path class="cls-30" d="m65.09,62.62c0,1-.81,1.81-1.81,1.81s-1.81-.81-1.81-1.81.81-1.81,1.81-1.81,1.81.81,1.81,1.81Z"/>
      <path class="cls-30" d="m72.11,54.92c0,1-.81,1.81-1.81,1.81s-1.81-.81-1.81-1.81.81-1.81,1.81-1.81,1.81.81,1.81,1.81Z"/>
      <path class="cls-30" d="m79.31,65.28c0,1-.81,1.81-1.81,1.81s-1.81-.81-1.81-1.81.81-1.81,1.81-1.81,1.81.81,1.81,1.81Z"/>
      <rect class="cls-30" x="83.1" y="65" width="3.37" height="12.8"/>
      <rect class="cls-22" x="54.35" y="65.39" width="3.37" height="12.41"/>
      <rect class="cls-22" x="68.62" y="59.65" width="3.37" height="18.15"/>
      <rect class="cls-22" x="83.1" y="65" width="3.37" height="12.8"/>
      <rect class="cls-30" x="90.56" y="69.27" width="3.37" height="8.53"/>
      <line class="cls-14" x1="84.51" y1="60.7" x2="92.24" y2="65"/>
      <path class="cls-30" d="m86.72,60.7c0,1-.81,1.81-1.81,1.81s-1.81-.81-1.81-1.81.81-1.81,1.81-1.81,1.81.81,1.81,1.81Z"/>
      <circle class="cls-30" cx="92.24" cy="65" r="1.81"/>
    </g>
    <g>
      <circle class="cls-3" cx="358.06" cy="177.25" r="31.37"/>
      <g>
        <rect class="cls-30" x="342.76" y="171.53" width="31.04" height="21.92"/>
        <rect class="cls-22" x="342.76" y="171.53" width="14.7" height="21.92"/>
        <polygon class="cls-30" points="342.76 171.53 337.71 180.01 352.31 180.01 357.46 171.53 342.76 171.53"/>
        <polygon class="cls-30" points="357.46 171.53 362.89 180.01 378.41 180.01 373.81 171.53 357.46 171.53"/>
        <polygon class="cls-22" points="357.46 171.53 362.89 180.01 378.41 180.01 373.81 171.53 357.46 171.53"/>
        <path class="cls-26" d="m352.77,166.22c-1.26-1.77-2.52-3.53-3.77-5.3-.15-.21-.51,0-.36.21,1.26,1.77,2.52,3.53,3.77,5.3.15.21.51,0,.36-.21h0Z"/>
        <path class="cls-26" d="m357.94,166.07c-.05-2.88-.1-5.76-.15-8.64,0-.26-.42-.27-.41,0,.05,2.88.1,5.76.15,8.64,0,.26.42.27.41,0h0Z"/>
        <path class="cls-26" d="m363.12,166.25c.92-1.65,1.85-3.29,2.77-4.94.13-.23-.23-.44-.36-.21-.92,1.65-1.85,3.29-2.77,4.94-.13.23.23.44.36.21h0Z"/>
        <path class="cls-26" d="m366.44,159.92l-.03-.03s-.04-.03-.07-.04c-.02-.01-.05-.02-.08-.02-.03,0-.05,0-.08.02-.03,0-.05.02-.07.04l-.03.04s-.03.07-.03.1v.05s.03.07.06.09l.03.03s.04.03.07.04c.02.01.05.02.08.02.03,0,.05,0,.08-.02.03,0,.05-.02.07-.04l.03-.04s.03-.07.03-.1v-.05s-.03-.07-.06-.09h0Z"/>
      </g>
    </g>
    <g>
      <g>
        <g>
          <path class="cls-30" d="m298.23,79.69l6.16,29.01c.28,1.32-1.09,2.38-2.3,1.79l-21.52-10.59c-.94-.46-1.2-1.68-.53-2.49l15.36-18.42c.86-1.04,2.54-.62,2.82.7Z"/>
          <path class="cls-22" d="m298.23,79.69l6.16,29.01c.28,1.32-1.09,2.38-2.3,1.79l-21.52-10.59c-.94-.46-1.2-1.68-.53-2.49l15.36-18.42c.86-1.04,2.54-.62,2.82.7Z"/>
          <path class="cls-30" d="m299.57,103.81l-2.39-16.58c10.25-1.48,19.1-7.9,23.65-17.19,7.6-15.48,1.18-34.26-14.3-41.86-15.48-7.6-34.26-1.18-41.86,14.3-3.29,6.7-4.07,14.37-2.21,21.58l-16.22,4.19c-2.86-11.09-1.66-22.86,3.39-33.15,11.66-23.78,40.5-33.63,64.27-21.97,23.78,11.66,33.63,40.5,21.96,64.27-6.99,14.26-20.56,24.12-36.3,26.39Z"/>
          <g class="cls-22">
            <path d="m299.57,103.81l-2.39-16.58c10.25-1.48,19.1-7.9,23.65-17.19,7.6-15.48,1.18-34.26-14.3-41.86-15.48-7.6-34.26-1.18-41.86,14.3-3.29,6.7-4.07,14.37-2.21,21.58l-16.22,4.19c-2.86-11.09-1.66-22.86,3.39-33.15,11.66-23.78,40.5-33.63,64.27-21.97,23.78,11.66,33.63,40.5,21.96,64.27-6.99,14.26-20.56,24.12-36.3,26.39Z"/>
          </g>
        </g>
        <g>
          <g>
            <g>
              <circle class="cls-30" cx="294.84" cy="53.58" r="19.41" transform="translate(-3.51 81.64) rotate(-15.67)"/>
              <circle class="cls-22" cx="294.84" cy="53.58" r="19.41" transform="translate(-3.51 81.64) rotate(-15.67)"/>
              <circle class="cls-30" cx="293.82" cy="52.53" r="19.41" transform="translate(31.2 194.37) rotate(-38.51)"/>
              <circle class="cls-2" cx="293.82" cy="52.53" r="16.13" transform="translate(97.83 277.65) rotate(-59.09)"/>
              <path d="m286.08,63.98l2.14-3.17c.06.04.13.08.19.12l-2.06,3.23c-.09-.06-.18-.12-.27-.18Zm-4.28-4.63c-.05-.09-.1-.19-.16-.28l3.38-1.8c.04.07.07.13.11.2l-3.33,1.89Zm10.48,6.92l.42-3.81.24.02-.35,3.81c-.1,0-.21-.02-.31-.03Zm-12.27-13.28c0-.11,0-.21,0-.32l3.83-.04v.23s-3.82.12-3.82.12Zm18.82,12.42l-1.39-3.57.22-.09,1.53,3.51-.09.04c-.06.03-.16.07-.26.1Zm-17.45-18.88c.05-.1.09-.19.14-.29l3.41,1.74c-.03.07-.07.14-.1.2l-3.45-1.66Zm20,12.54c.05-.05.09-.11.14-.17l2.96,2.43c-.07.08-.14.17-.21.25l-2.88-2.52Zm-13.51-14.55l-2.27-3.08.25-.18,2.22,3.12-.19.14Zm15.67,10.3l.05-.23,3.74.8c-.02.1-.04.2-.07.31l-3.73-.88Zm-11.26-12.15l-.59-3.78c.1-.02.2-.03.31-.04l.52,3.79-.24.03Zm11.2,7.37c-.02-.07-.04-.14-.06-.21l3.68-1.05c.03.1.06.21.08.31l-3.71.95Zm-6.44-6.95l1.24-3.62c.1.04.21.07.31.11l-1.34,3.59c-.07-.03-.14-.05-.21-.07Zm4.18,2.75l-.16-.17,2.78-2.63c.07.08.15.16.22.23l-2.84,2.57Z"/>
            </g>
            <g>
              <polyline class="cls-12" points="289.76 46.54 293.61 53.16 299.84 47.1"/>
              <path d="m294.73,53.46c-.44.5-1.2.55-1.7.11-.5-.44-.55-1.2-.11-1.7.44-.5,1.2-.55,1.7-.11.5.44.55,1.2.11,1.7Z"/>
            </g>
          </g>
          <path class="cls-22" d="m283.05,42.15c6.39-6.2,16.6-6.05,22.81.34,1.52,1.57,2.66,3.37,3.42,5.29-.72-2.4-2-4.67-3.86-6.59-6.2-6.39-16.42-6.54-22.81-.34-4.82,4.68-6.09,11.64-3.76,17.52-1.67-5.58-.27-11.88,4.2-16.21Z"/>
        </g>
      </g>
      <g>
        <g>
          <path class="cls-30" d="m132,167.75c-14.01-15.54-21.72-35.62-21.72-56.56,0-38.36,25.88-71.96,62.93-81.71l-6.23,7.82,10.91,9.97c-28.98,7.63-49.22,33.91-49.22,63.92,0,16.38,6.03,32.09,16.99,44.24l-13.66,12.32Z"/>
          <path class="cls-30" d="m133.82,168.8c.68-.17,23.2,0,23.2,0l-11.36-13.37-13.66,12.32,1.82,1.05Z"/>
        </g>
        <g class="cls-22">
          <path d="m132,167.75c-14.01-15.54-21.72-35.62-21.72-56.56,0-38.36,25.88-71.96,62.93-81.71l-6.23,7.82,10.91,9.97c-28.98,7.63-49.22,33.91-49.22,63.92,0,16.38,6.03,32.09,16.99,44.24l-13.66,12.32Z"/>
          <path d="m133.82,168.8c.68-.17,23.2,0,23.2,0l-11.36-13.37-13.66,12.32,1.82,1.05Z"/>
        </g>
        <g>
          <g>
            <path class="cls-30" d="m300.07,198.74v-29.66c0-1.35,1.56-2.11,2.62-1.27l18.85,14.83c.82.65.82,1.9,0,2.54l-18.85,14.83c-1.06.83-2.62.08-2.62-1.27Z"/>
            <rect class="cls-30" x="198.35" y="175.09" width="104.77" height="17.63"/>
          </g>
          <path class="cls-22" d="m321.37,182.64l-18.85-14.83c-1.06-.83-2.62-.08-2.62,1.27v6.01h-106.01v17.63h106.01v6.01c0,1.35,1.56,2.11,2.62,1.27l18.85-14.83c.82-.65.82-1.9,0-2.54Z"/>
          <path class="cls-30" d="m193.87,26.75v18.07c35.8,0,64.93,29.13,64.93,64.93s-29.13,64.93-64.93,64.93h-116v18.07h116c45.77,0,83-37.23,83-83S239.64,26.75,193.87,26.75Z"/>
          <path class="cls-30" d="m197.39,21.02l-.06,29.66c0,1.35-1.56,2.1-2.62,1.27l-18.82-14.87c-.82-.65-.82-1.9,0-2.54l18.88-14.79c1.06-.83,2.62-.07,2.62,1.28Z"/>
        </g>
      </g>
      <path class="cls-22" d="m197.37,175.2c.36,0-7.36,4.89-12.58,4.85l-.49,13.19h-3.45l-6.6-17.63,23.13-.41Z"/>
      <g>
        <g>
          <g>
            <path class="cls-26" d="m191,83.92c2.42,3.82,3.31,6.14,3.69,9.9.44,4.39.42,8.29-.51,9.46-1.22,1.54-15.09,3.58-22.91,3.62-.28,0-.63-2.47-.63-2.47,0,0-.99,2.47-1.36,2.47-2.13,0-3.5-.01-3.5-.01,0,0,1.6-3.72,3.15-16.93.76-6.45,7.08-9.31,10.86-9.97,6.29-1.1,11.22,3.93,11.22,3.93Z"/>
            <path class="cls-26" d="m173.01,97.15c-2.21-3.44-4.68-12.87,3.7-16.2,10.46-4.16,15.53,2.4,16.76,9.07,1.23,6.67-2.33,11.93-9.37,11.74-7.05-.18-9.56-2.24-11.09-4.61Z"/>
            <g>
              <g>
                <path class="cls-18" d="m190.5,109.83s-2.35,1.81-5.38,4.42c-.63.54-1.33,1.01-2.06,1.4-1.99,1.05-3.79,1.66-4.28.7-.11-.21-.19-.44-.25-.68-.42-1.6-.25-3.86,1.05-4.89,1.46-1.16,2.16-2.16,1.9-3.73-.14-.89-.46-1.81-.84-2.71l1.15-1.34,6.01-6.07c-.15,4.05-.46,10.69,2.71,12.89Z"/>
                <path class="cls-27" d="m181.52,107.4c1.65-.98,3.47-2.68,3.25-4.63-.1-.82-.27-1.59-.47-2.09l-3.36,4.45c.28.72.38,1.19.58,2.28Z"/>
                <path class="cls-18" d="m189.49,90.43c-.57,6.18-.67,8.8-3.86,12.03-4.79,4.87-12.17,3.23-13.44-2.89-1.14-5.51-.03-14.69,6.04-17.28,5.97-2.56,11.83,1.96,11.26,8.14Z"/>
                <path class="cls-26" d="m181.75,92.67c-.03.62-.42,1.13-.85,1.14-.44,0-.76-.49-.73-1.11.03-.62.42-1.13.85-1.14.44,0,.76.49.73,1.11Z"/>
                <path class="cls-26" d="m175.32,92.56c-.03.59-.41,1.08-.84,1.09-.43,0-.75-.47-.71-1.06.03-.59.41-1.08.84-1.09.43,0,.75.46.71,1.06Z"/>
                <path class="cls-26" d="m182.62,90.39c-.08.02-.17,0-.24-.05-1.1-.78-2.23-.36-2.25-.36-.17.06-.35-.01-.4-.17-.05-.16.05-.34.22-.4.06-.02,1.49-.55,2.85.42.14.1.15.29.04.43-.06.07-.13.11-.21.13Z"/>
                <path class="cls-26" d="m173.14,89.56c-.07-.03-.12-.09-.15-.16-.05-.15.04-.32.2-.37,1.64-.56,2.76.24,2.81.27.13.1.15.28.05.41-.11.13-.3.16-.44.06-.04-.03-.93-.64-2.23-.19-.08.03-.17.02-.24-.01Z"/>
                <path class="cls-26" d="m184.33,84.94c-1.96,2.06-.99,9.86,4.53,10.88,6.36-1.5,1.34-17.04-4.53-10.88Z"/>
                <path class="cls-26" d="m176.95,98.32c.5.77,1.11,2.27,1.11,2.27.15-.03.29-.06.44-.1,1.97-.46,2.73-1.32,2.97-2.14.13-.45.11-.89.04-1.23-.07-.4-.22-.67-.22-.67-.9.87-2.7,1.44-3.67,1.7-.41.11-.67.17-.67.17Z"/>
                <path class="cls-2" d="m177.62,98.16l.34.66c1.85-.44,3.1-.99,3.54-1.69-.07-.4-.22-.67-.22-.67-.9.87-2.7,1.44-3.67,1.7Z"/>
                <path class="cls-17" d="m178.5,100.5c1.97-.46,2.73-1.32,2.97-2.14-.66.18-1.44.48-2.08.94-.49.36-.75.79-.89,1.2Z"/>
                <path class="cls-19" d="m177.06,92.12s-1.16,2.78-2.38,4.15c.79.76,2.2.36,2.2.36l.18-4.51Z"/>
              </g>
              <path class="cls-26" d="m179.78,91.26l1.42.33c-.64.72-1.42-.33-1.42-.33Z"/>
              <path class="cls-26" d="m173.45,91.2l1.42.33c-.64.72-1.42-.33-1.42-.33Z"/>
            </g>
            <path class="cls-26" d="m178.27,80.97c-2.44.83-5.03,5.05-5.46,6.67,3.47.57,12.82-2.68,12.82-2.68,0,0,6.24,1.72,3.08-1.44-3.16-3.16-10.44-2.55-10.44-2.55Z"/>
            <path class="cls-18" d="m191.36,95.46c-.73,1.27-1.92,2.06-3,2.33-1.63.41-2.48-2.22-1.92-3.86.5-1.47,2.11-2.45,3.7-2.13,1.57.32,2.06,2.2,1.22,3.65Z"/>
            <path class="cls-14" d="m169.81,88.77c-.35,2.72-.7,5.46-1.62,8.05-.92,2.58-2.82,7.91-5.1,9.43"/>
          </g>
          <circle class="cls-30" cx="189.01" cy="97.64" r="1.15"/>
          <path class="cls-21" d="m190.07,93.7c-.54-.15-1.16-.04-1.61.29-.46.33-.75.88-.77,1.45"/>
        </g>
        <g>
          <path class="cls-18" d="m141.9,149.6c.31-.85,2.5-3.7,3.67-4.77,1.17-1.06,5.31-3.39,5.31-3.39l3.5,3.31s-.33,1.9-1.73,2.59c-.81.4-1.65.73-1.65.73,0,0,.01.74-.18,1.52-.21.86-.66,1.88-1.36,1.67-.7-.21-.38-2.56-.33-2.9-.05.34-.45,2.73-1.42,2.57-.93-.15-.47-2.63-.47-2.63,0,0-.34,1.12-.51,1.7-.18.57-.89.93-1.26.15-.43-.91-.16-2.21-.16-2.21,0,0-.68.63-1.84,2.09-.83,1.05-1.82.29-1.56-.43Z"/>
          <path class="cls-21" d="m149.04,148.81c.09-.44.18-.89.35-1.31.17-.42.43-.81.79-1.08"/>
          <path class="cls-21" d="m147.11,148.65c.09-.44.18-.89.35-1.31.17-.42.43-.81.79-1.08"/>
          <path class="cls-21" d="m145.3,148.02c.09-.44.18-.89.35-1.31.17-.42.43-.81.79-1.08"/>
        </g>
        <g>
          <path class="cls-18" d="m169.23,118.99c0,.39-1.1,14.41-1.1,14.41-.78,1.46-16.83,7.03-18.89,9.07l3.74,3.85s19.1-3.85,22.18-6.09c2.63-1.91,2.41-5.27,2.41-9.85s1.6-10.98,1.6-10.98l-9.95-.4Z"/>
          <path class="cls-30" d="m176.5,110.71c-7.57,1.3-8.61,12.5-8.61,12.5l-1.15,8.9-4.29,3.13,4.01,8.58s8.57-3.26,12.34-5.49c3.77-2.23,3.87-19.33,3.87-19.33l-6.17-8.29Z"/>
          <path class="cls-27" d="m175.14,139.68c.14.06-3.17,1.91-3.17,1.91-.04.02-1.2-4.89-1.24-4.87-1.82-8.24-.59-14.81-.59-14.81,1.38,2.88,4.65,15.36,5,17.77Z"/>
        </g>
        <g>
          <path class="cls-26" d="m176.8,149.83c6.31-.63,14.52-1.13,25.2-1.37,0,0,7.97,18.76-1.48,24.37-2.85,1.69-7.56,2.36-12.75,2.47-6.02.13-10.97-4.69-10.97-10.71v-14.76Z"/>
          <path class="cls-26" d="m197.43,165.28v8.81c-7.86,2.27-24.16,1.4-33.85.61-4.36-.36-7.72-4-7.72-8.38v-7.23c0-2.4,1.48-4.54,3.73-5.39,4.7-1.77,13.25-4.4,22.19-4.26,8.67.13,15.65,7.16,15.65,15.84Z"/>
        </g>
        <g>
          <path class="cls-30" d="m203.43,148.45c-1.22-1.61-4.05-5.46-4.41-9.52,0-.01,0-.02,0-.03-.02-.26-.04-.52-.04-.78-.06-1.72-.05-3.77.06-6.21.02-.38.04-.79.06-1.19.07-1.29.17-2.67.29-4.18.23-2.7.56-5.78,1-9.29.1-.81.86-2.07.98-2.93.51-3.82-2.97-6.58-6.72-6.42-1,.04-2.07.11-3.14.21-4.22.4-7.67.76-11.34,1.63-1.22.28-2.47.63-3.67.97-4.32,1.24-6.3,6.76-6.36,11.21-.05,4.14,2.85,12.6,4.84,20.03.29,4.26-2.03,6.58-1.33,8.07.7,1.49,21.29-2.55,29.78,2.51,0,0,1.3-2.35,0-4.07Z"/>
          <path class="cls-4" d="m203.43,148.45c-1.22-1.61-4.05-5.46-4.41-9.52,0-.01,0-.02,0-.03-.02-.26-.04-.52-.04-.78-.06-1.72-.05-3.77.06-6.21.02-.38.04-.79.06-1.19.07-1.29.17-2.67.29-4.18.23-2.7.56-5.78,1-9.29.1-.81.86-2.07.98-2.93.51-3.82-2.97-6.58-6.72-6.42-1,.04-2.07.11-3.14.21-4.22.4-7.67.76-11.34,1.63-1.22.28-2.47.63-3.67.97-4.32,1.24-6.3,6.76-6.36,11.21-.05,4.14,2.85,12.6,4.84,20.03.29,4.26-2.03,6.58-1.33,8.07.7,1.49,21.29-2.55,29.78,2.51,0,0,1.3-2.35,0-4.07Z"/>
          <path class="cls-27" d="m200.15,143.07s-7.27,1.6-10.65,1.75c-3.38.15-10.7,2.46-10.7,2.46l-2.6,1.61-.92-2.15,4.38-3.96,19.23-3.9c.24,1.61,1.12,3.86,1.26,4.18Z"/>
          <polygon class="cls-27" points="191.82 119.13 190.91 131.56 186.79 135.6 189.67 137.84 193.59 135.47 195.62 128.48 191.82 119.13"/>
        </g>
        <g>
          <g>
            <path class="cls-26" d="m160.75,232.56l9.64-4.25,3.05-3.41.94,1.28,1.15-.5c.54-4.28-1.54-6.28-2.63-7.19-.08-.07-.19-.15-.32-.25-.04-.03-.09-.07-.13-.1-.02,0-.03-.03-.05-.03-.04-.03-.1-.07-.15-.11,0,0-.02,0-.03-.02h0s-.05-.04-.09-.06l-5.29,2.34s-.09.28-.25.73c-.53,1.49-1.84,4.89-3.28,6.7-.06.08-.12.16-.18.23-.17.21-.36.39-.54.54-4.06,3.26-1.84,4.12-1.84,4.12Z"/>
            <path class="cls-18" d="m163.1,227.88c1.51.59,3.64-.9,5.26-2.85.91-1.1,1.79-2.86,2.56-4.28.5-.92.96-1.7,1.36-2.07.23-.2.43-.29.62-.2,0,0,0,0,0-.02-.08-.07-.19-.15-.32-.25-.03-.03-.08-.06-.13-.1-.02,0-.03-.03-.05-.03-.04-.03-.1-.07-.15-.11,0,0-.02,0-.03-.02h0s-.05-.04-.09-.06c-.55-.42-1.17-.84-1.17-.84l-4.98,1.25.39,1.91c-.55,1.97-1.72,5.71-3.07,7.45-.06.08-.12.16-.18.23Z"/>
          </g>
          <path class="cls-18" d="m154.99,190.79c3.07,7.64,7.85,17.37,11.37,29.57.07.22.13.44.19.67.07.24.14.47.21.7l3.64-.89.16-.63s1.26-.98,1.04-1.2c-.14-.14-.05-.41-.07-.64h0c-.98-8.52-4.76-39.75-8.5-46.24,0,0,4.24.79,7.46.25,2.32-.39,5.13-16.44,5.13-16.44,0,0-5.91-1.7-11.98-1.7h-.08s-11.92,3.53-14.96,6.2c-2.85,2.51-3.28,6.62-1.7,11.51,1.45,4.48,4.27,9.38,8.08,18.84Z"/>
          <path class="cls-31" d="m151.59,164.29c.71-2.77,5.81-5.49,11.09-6.94.86-1.11-1.34-2.42-1.34-2.42l10.39-.94,1.81,1.3,3.1.65-2.76,12.41-11.35,1.99,7.18,33.32.85,6.58s-12.16-26.1-14.7-31.65c-2.54-5.55-5.5-9.48-4.27-14.29Z"/>
          <path class="cls-18" d="m175.63,155.94s-16.21,3.43-19.38,5.94c-2.7,2.13-2.77,4.91-1.9,7.54,2.42,7.26,11.09,19.36,21.01,54.11l5.69-1.79c-.54,0-1.97-18.14-2.4-32.71-.2-6.87-3.72-12.8-5.1-15.19,0,0,5.79.78,9.01.24,4.13-.69,6.75-14.48-6.93-18.14Z"/>
          <path class="cls-27" d="m173.88,174.48s-2.15-3.57-4.83-5.07c0,0,3.3.22,5.36,4.52l-.86-.1.33.65Z"/>
          <g>
            <path class="cls-26" d="m182.98,229.21l-1.18.26-.98-1.64c-.12-.2-.39-.24-.56-.08l-3.37,3.12-9.2,2.02s-2.05-2.17,2.52-3.54c.22-.07.41-.24.61-.4,2.26-1.74,4.98-6.52,4.98-6.52l5.45-1.2s.25.23.62.69c.86,1.07,2.44,3.36,1.12,7.3Z"/>
            <path class="cls-18" d="m181.86,221.92s0,.02,0,.02c-.9-.64-3.4,3.6-5.53,5.32-1.91,1.54-4.21,2.54-5.52,1.69,2.26-1.74,5.1-7.77,5.1-7.77l4.38-.96s1.2,1.25,1.57,1.71Z"/>
          </g>
        </g>
        <g>
          <g>
            <path class="cls-26" d="m165.16,158.29l15.99-6.08c.36-.14.27-.71-.11-.71l-25.65-.31c-.06,0-.12.02-.18.05l-9.86,6.39c-.29.19-.17.68.17.68h19.53s.08,0,.11-.02Z"/>
            <path class="cls-9" d="m165.16,158.29l15.99-6.08c.36-.14.27-.71-.11-.71l-25.65-.31c-.06,0-.12.02-.18.05l-9.86,6.39c-.29.19-.17.68.17.68h19.53s.08,0,.11-.02Z"/>
            <polygon class="cls-9" points="165.22 156.47 175.53 152.67 163.45 152.42 165.22 156.47"/>
            <path class="cls-22" d="m181.15,152.2l-15.99,6.08s-.07.02-.11.02h-.25l-.3-.88,16.54-5.93c.38,0,.46.58.11.71Z"/>
          </g>
          <g>
            <path class="cls-26" d="m144.3,158.31h20.81c.36,0,.65-.24.65-.53,0-.05-.01-.11-.03-.16l-9.26-21.23c-.23-.61-.93-1.02-1.72-1.02h-20.83c-.35,0-.64.23-.64.51,0,.06.01.12.04.17l9.26,21.23c.24.6.93,1.02,1.72,1.02Z"/>
            <path class="cls-9" d="m133.91,135.37h20.83c.79,0,1.49.42,1.72,1.02l9.26,21.23c.02.05.03.11.03.16,0,.29-.29.52-.64.53h-20.81c-.79,0-1.48-.42-1.72-1.02l-9.26-21.23c-.03-.06-.04-.11-.04-.17,0-.28.29-.51.64-.51Z"/>
            <path class="cls-2" d="m146.81,147.31c.45,1.02,1.36,1.72,2.04,1.58.68-.14.86-1.07.42-2.09-.44-1.02-1.36-1.7-2.04-1.56-.68.14-.88,1.03-.43,2.08Z"/>
          </g>
          <path class="cls-22" d="m154.62,135.37h.12c.79,0,1.49.42,1.72,1.02l9.26,21.23c.02.05.03.11.03.16,0,.29-.29.52-.64.53h-.67l-9.83-22.94Z"/>
        </g>
        <g>
          <path class="cls-18" d="m192.23,117.96c0,.39,1.25,14.27,1.25,14.27-.78,1.46-16.83,7.03-18.89,9.07l3.74,3.85s19.1-3.85,22.18-6.09c2.63-1.91,2.41-5.27,2.41-9.85s-1-11.25-1-11.25h-9.7Z"/>
          <path class="cls-30" d="m193.85,109.39c-3.94,1.65-.93,22.76-.93,22.76l-3.88,1.64,2.39,8.99s4.78-.91,9.56-1.88c5.05-1.03,5.79-12.69,3.26-22.12-2.53-9.44-5.78-11.31-10.39-9.38Z"/>
          <g>
            <path class="cls-18" d="m167.89,151.41c.09-.9,1.52-4.2,2.39-5.52.87-1.32,4.31-4.59,4.31-4.59l4.2,2.35s.15,1.92-1.04,2.94c-.69.59-1.42,1.11-1.42,1.11,0,0,.19.72.2,1.52,0,.89-.18,1.98-.91,1.95-.73-.03-1-2.39-1.04-2.73.03.34.24,2.75-.74,2.84-.94.08-1.1-2.43-1.1-2.43,0,0-.05,1.17-.08,1.77-.03.6-.63,1.12-1.18.45-.64-.77-.7-2.1-.7-2.1,0,0-.51.78-1.27,2.48-.55,1.22-1.7.73-1.62-.03Z"/>
            <path class="cls-21" d="m174.61,148.89c-.02-.45-.04-.91.02-1.36.06-.45.21-.89.51-1.24"/>
            <path class="cls-21" d="m172.7,149.21c-.02-.45-.04-.91.02-1.36s.21-.89.51-1.24"/>
            <path class="cls-21" d="m170.8,149.04c-.02-.45-.04-.91.02-1.36.06-.45.21-.89.51-1.24"/>
          </g>
        </g>
      </g>
    </g>
    <g>
      <circle class="cls-3" cx="58.79" cy="177.25" r="31.37"/>
      <g>
        <g>
          <path class="cls-26" d="m64.73,197.3c0,2.05-2.85,3.69-6.31,3.64-3.46-.06-6.25-1.73-6.22-3.78s2.85-3.69,6.31-3.63c3.46.06,6.25,1.73,6.23,3.77Z"/>
          <path class="cls-26" d="m67.44,190.55c.34-.32.54-.76.57-1.23,0-2.01-4.23-3.69-9.49-3.74-5.27-.05-9.56,1.52-9.58,3.53.02.46.22.9.55,1.23-.1.19-.16.4-.17.62.01.47.22.91.56,1.23-.11.2-.17.42-.18.65.01.47.22.92.58,1.23-.12.2-.19.43-.2.66.03.47.25.9.62,1.19-.13.2-.2.43-.21.67,0,1.67,3.51,3.08,7.89,3.11,4.38.04,7.94-1.23,7.96-2.94,0-.24-.07-.47-.2-.68.36-.29.58-.72.62-1.18,0-.23-.06-.46-.18-.66.36-.3.58-.73.62-1.19,0-.23-.06-.46-.17-.66.36-.3.58-.73.62-1.2-.02-.23-.09-.45-.21-.65Z"/>
          <path class="cls-5" d="m67.44,190.55c.34-.32.54-.76.57-1.23,0-2.01-4.23-3.69-9.49-3.74-5.27-.05-9.56,1.52-9.58,3.53.02.46.22.9.55,1.23-.1.19-.16.4-.17.62.01.47.22.91.56,1.23-.11.2-.17.42-.18.65.01.47.22.92.58,1.23-.12.2-.19.43-.2.66.03.47.25.9.62,1.19-.13.2-.2.43-.21.67,0,1.67,3.51,3.08,7.89,3.11,4.38.04,7.94-1.23,7.96-2.94,0-.24-.07-.47-.2-.68.36-.29.58-.72.62-1.18,0-.23-.06-.46-.18-.66.36-.3.58-.73.62-1.19,0-.23-.06-.46-.17-.66.36-.3.58-.73.62-1.2-.02-.23-.09-.45-.21-.65Z"/>
          <path class="cls-30" d="m75.34,172.82c.11-9.32-7.36-16.97-16.68-17.08-9.32-.11-16.97,7.36-17.08,16.68-.06,5.06,2.15,9.88,6.03,13.13.71.59,1.09,1.49,1,2.41,0,.05,0,.09,0,.14,0,2.04,4.31,3.74,9.65,3.8,5.34.06,9.7-1.54,9.73-3.59v-.13c-.08-.94.31-1.86,1.05-2.44,3.93-3.15,6.24-7.89,6.3-12.92Z"/>
          <path class="cls-8" d="m75.34,172.82c.11-9.32-7.36-16.97-16.68-17.08-9.32-.11-16.97,7.36-17.08,16.68-.06,5.06,2.15,9.88,6.03,13.13.71.59,1.09,1.49,1,2.41,0,.05,0,.09,0,.14,0,2.04,4.31,3.74,9.65,3.8,5.34.06,9.7-1.54,9.73-3.59v-.13c-.08-.94.31-1.86,1.05-2.44,3.93-3.15,6.24-7.89,6.3-12.92Z"/>
          <path class="cls-10" d="m67.4,163.02c0,3.29-3.85,5.96-8.61,5.96s-8.61-2.67-8.61-5.96,3.85-5.96,8.61-5.96,8.61,2.67,8.61,5.96Z"/>
        </g>
        <path class="cls-13" d="m45.6,179.04c-1.47-2.52-2.05-5.54-1.63-8.43.43-2.88,1.86-5.61,3.99-7.6"/>
        <path class="cls-26" d="m50.67,195.96c4.87,2.05,10.5,2.12,15.42.19-4.85,2.1-10.62,2.03-15.42-.19,0,0,4.8,2.22,0,0Z"/>
        <path class="cls-26" d="m50.55,194.14c4.87,2.05,10.5,2.12,15.42.19-4.85,2.1-10.62,2.03-15.42-.19,0,0,4.8,2.22,0,0Z"/>
        <path class="cls-26" d="m50.44,192.33c4.87,2.05,10.5,2.12,15.42.19-4.85,2.1-10.62,2.03-15.42-.19,0,0,4.8,2.22,0,0Z"/>
        <path class="cls-11" d="m54.81,188.33c1.29-4.41,1.52-9.21.65-13.76-.14-.73-.47-1.62-1.13-1.63-.59-.01-.98.71-1.1,1.37-.45,2.32.75,4.68,2.29,6.28.83.87,1.84,1.62,2.97,1.68,1.13.06,2.21-.61,3.03-1.51,1.57-1.71,2.35-4.38,1.78-6.76-.24-1.01-.96-2.09-1.86-1.9-.54.12-.94.69-1.08,1.3s-.07,1.25,0,1.87c.57,4.49,1.67,8.89,3.25,13.05"/>
      </g>
    </g>
    <g>
      <g>
        <path class="cls-23" d="m232.16,202.19s54.19-12.7,56.77-1.41c3.68,16.11-35.42,26.95-56.25,26.29-20.83-.66-.52-24.88-.52-24.88Z"/>
        <path class="cls-24" d="m232.16,202.19s54.19-12.7,56.77-1.41c3.68,16.11-35.42,26.95-56.25,26.29-20.83-.66-.52-24.88-.52-24.88Z"/>
        <path class="cls-25" d="m271.15,204.26l-25.45,16.17,3.4,4.83s-1.79,2.65-5.19-5.49l15.75-10.41s-4.93-.49-4.8-1.27c.21-1.27,11.04-3.67,15.97-4.76.25-.09.54.04.63.29.09.25-.04.54-.29.63Z"/>
        <path class="cls-25" d="m244.77,218.61l4.41,7.15c-5.44.95-10.97,1.39-16.51,1.3-1.82-.01-3.62-.34-5.32-.96l-1.55-2.84,3.34-6.72,15.62,2.06Z"/>
        <g>
          <polygon class="cls-32" points="253.2 215.77 241.88 222.95 243.91 228.44 257.2 222.47 253.2 215.77"/>
          <g>
            <path class="cls-26" d="m235.65,224.79l1.11,3.95s.83.18,1.09,1.01c.15.47-.2,1.75-.2,1.75l2.98,10.89s.75-.2,1.04-.41c.35-.26.64-.52.87-.78.8-.93.89-2.27.92-3.27.05-1.67,1.01-6.55,1.01-6.55,0,0,.37-1.27,1.71-2.39.75-.62,1.09-1.41,1.03-1.9-.14-1-.86-1.37-1.79-1.26l-1.08.13c-.77-.58-1.01-1.55-.52-2.49,0,0,.64-2.37-.35-1.97-.57.23-3.07,1.34-5.07,2.16-.47.19-.91.37-1.29.53h0c-.86.35-1.45.6-1.45.6Z"/>
            <path class="cls-30" d="m244.05,233.98c.03-.06.01-.14-.04-.18-.23-.21-.52-.37-.85-.44-.17-.04-.25.24-.08.28.29.06.54.2.75.38.07.06.17.05.21-.03,0,0,0,0,0,0Z"/>
            <path class="cls-30" d="m244.27,233.01c.03-.06.01-.14-.04-.18-.23-.21-.52-.37-.85-.44-.17-.04-.25.24-.08.28.29.06.54.19.75.38.07.06.17.05.21-.03,0,0,0,0,0,0Z"/>
            <path class="cls-30" d="m244.46,232.03c.03-.06.01-.14-.04-.18-.23-.21-.52-.37-.85-.44-.17-.04-.25.24-.08.28.29.06.54.19.75.38.07.06.17.05.21-.03,0,0,0,0,0,0Z"/>
          </g>
          <path class="cls-10" d="m237.1,224.19h0c-.86.35-1.45.6-1.45.6l1.11,3.95s.83.18,1.09,1.01c.15.47-.2,1.75-.2,1.75l2.98,10.89s.75-.2,1.04-.41c.16-.12.31-.24.44-.36l-4.8-17.52c-.07.03-.15.06-.22.09Z"/>
          <path class="cls-15" d="m244.31,231.97c.37-.14.74-.27,1.13-.34.39-.07.79-.07,1.16.07.17.06.35.17.39.35.04.19-.1.37-.25.48-.3.21-.7.27-1.06.2-.36-.07-1.06-.54-1.37-.76"/>
          <path class="cls-15" d="m244.29,231.92c.31-.24.62-.49.88-.78.26-.29.47-.64.55-1.03.04-.18.03-.39-.1-.51-.14-.13-.37-.11-.54-.04-.34.15-.59.46-.72.8-.13.35-.09,1.19-.06,1.56"/>
        </g>
      </g>
      <path class="cls-32" d="m254.55,167.71s1.98,17.62,2.51,18.57c1.79,3.2,13.64,8.68,13.64,8.68l6.04-1.27,4.33,3.62-2.85,2.24-3.35-1.27c-1.83.33-3.68.49-5.54.49-3.12,0-18.17-3.81-20.68-8.01-2.51-4.2-3.67-23.63-3.67-23.63l9.57.59Z"/>
      <g>
        <path class="cls-30" d="m244.72,174.63s-4.64-15.47,1.14-19.77c5.78-4.3,10.39,16.98,10.39,16.98l-11.53,2.79Z"/>
        <path class="cls-6" d="m244.72,174.63s-4.64-15.47,1.14-19.77c5.78-4.3,10.39,16.98,10.39,16.98l-11.53,2.79Z"/>
        <path class="cls-30" d="m248.38,202.94l-.04-20.51-.44-28.08-12.12-2.63-10.55-.47-12,5.49-.28,6.89s1.37,31.64,1.3,32.6c-.09,1.17-3.5,8.51-3.5,8.51,15.16,3.45,37.87-.75,37.63-1.8Z"/>
        <path class="cls-6" d="m248.38,202.94l-.04-20.51-.44-28.08-12.12-2.63-10.55-.47-12,5.49-.28,6.89s1.37,31.64,1.3,32.6c-.09,1.17-3.5,8.51-3.5,8.51,15.16,3.45,37.87-.75,37.63-1.8Z"/>
        <g>
          <path class="cls-26" d="m247.26,134.72c.67-.06,1.24-.66,1.27-1.33.03-.67-.49-1.32-1.14-1.44l-3.11-.31c.15,1.99.3,3.99.44,5.98.6.15,1.25.19,1.84-.02.59-.2,1.1-.66,1.28-1.25.18-.59-.04-1.31-.58-1.63Z"/>
          <g>
            <path class="cls-32" d="m235.39,146.23l-6.68-8.4s0,0,0,.03c0,.79-.03,1.7-.09,2.67,0,0-.72-.34-.72-.34-.29,4.36-2.01,11.81-1.93,12.45l7.02,3.49h1.41l.12-4.12c-.71-1.78-.04-3.85.88-5.79Z"/>
            <path class="cls-27" d="m234.39,149.06l-4.22-3.34c-.11,1.7.78,4.37,4.17,5.75-.2-1.02-.13-1.75.05-2.42Z"/>
          </g>
          <g>
            <path class="cls-32" d="m230.14,133.66c-1.38,5.65-1.9,8.37.03,12.06,2.9,5.56,10,5.6,13.05.46,2.75-4.63,4.54-13.09-.23-16.94-4.7-3.79-11.47-1.24-12.85,4.42Z"/>
            <path class="cls-26" d="m231.33,125.99c1.71-2.82,6.19-3.28,7.84-1.05.25.33-2.43.41-2.12.4l-1.57,4.45c-.31-.18-1.07,0-1.72.93,0,0-1.01,6.13-4.18,7.84-3.12-4.3-2.76-12.56,1.75-12.57Z"/>
            <path class="cls-32" d="m226.51,137.61c0,1.57.73,2.98,1.66,3.87,1.4,1.34,3.03.3,3.41-1.49.35-1.62.04-4.26-1.74-4.92-1.75-.65-3.33.75-3.33,2.54Z"/>
            <path class="cls-26" d="m237.8,138.4c-.18.57-.02,1.12.36,1.23.37.11.82-.26.99-.83.18-.57.02-1.12-.36-1.23-.37-.11-.82.26-.99.83Z"/>
            <path class="cls-26" d="m243.36,140.21c-.18.57-.02,1.12.36,1.23.37.11.82-.26.99-.83.18-.57.02-1.12-.36-1.23-.37-.11-.82.26-.99.83Z"/>
            <path class="cls-16" d="m241.4,138.69s.71,2.59,1.03,4.12c.08.37-.2.73-.57.74-.82.02-1.59-.44-1.59-.44l1.13-4.42Z"/>
            <path class="cls-26" d="m237.2,134.99c.07.06.18.08.28.05,1.17-.44,2,.15,2.01.16.12.09.3.06.39-.06.09-.12.06-.3-.06-.39-.04-.03-1.09-.77-2.54-.23-.14.05-.22.21-.16.36.02.05.05.08.08.11Z"/>
            <path class="cls-26" d="m246.32,137.63c.05,0,.1-.03.15-.07.11-.1.13-.28.02-.39-1.02-1.15-2.28-.96-2.34-.95-.15.02-.26.17-.23.32.02.15.16.26.31.23.05-.01,1.03-.15,1.85.78.06.07.16.1.25.09Z"/>
          </g>
          <path class="cls-26" d="m237.33,144.27c.19.16.4.3.62.42.07.04.16.02.21-.04h0c.03-.08,0-.16-.07-.21-1.13-.61-1.91-1.72-2.09-3,0-.08-.08-.14-.16-.14-.07,0-.13.05-.14.12,0,.01,0,.02,0,.03.13,1.12.72,2.13,1.62,2.81Z"/>
          <path class="cls-26" d="m250.07,130.51c-.38-1.13-1.72-1.6-2.91-1.69.75-.01,1.33-.77,1.33-1.52,0-.75-.46-1.43-1.05-1.89-1.05-.82-2.54-1.04-3.78-.54.23-.11.32-.42.24-.67-.08-.25-.27-.44-.48-.6-1.26-.96-3.21-.87-4.36.22-.4-1.37-1.99-2.26-3.37-1.9-1.35.35-3.88.62-4.27,4.07-1.14-.81-2.91-.64-3.82.45-.98,1.18-.72,3.17.52,4.06-.62-.26-1.38.14-1.63.76-.25.62-.06,1.36.37,1.87.43.51,1.06.82,1.7,1,.6.17,1.26.24,1.86.06.6-.19,1.14-.67,1.25-1.29.1.65.78,1.13,1.43,1.06.65-.07,1.2-.63,1.31-1.28.11-.65-.2-1.33-.72-1.73.74.72,2.18.44,2.59-.51.55,1.05,1.33,2.05,2.43,2.52,1.09.47,2.53.27,3.23-.69.35.41.72.83,1.18,1.13.46.29,1.04.45,1.56.28.52-.17.93-.71.82-1.25.86.72,2.07,1.09,3.12.72,1.06-.36,1.82-1.58,1.46-2.64Z"/>
        </g>
        <path class="cls-30" d="m231.21,155.79s2.94,2.62,4.45-.77l.78.61s-.08,2.52-1.5,3.36c.35,1.4,6.32,21.74,7.39,31.99l-1.63,4.16-4.34-3.42s-2.11-17.59-2.83-32.53c-1.74-.59-3.11-1.89-3.75-3.55l1.43.16Z"/>
        <polygon class="cls-27" points="235.01 156.14 237.56 158.12 237.97 152.17 237.16 151.99 236.49 156.01 235.28 155.3 235.01 156.14"/>
        <path class="cls-27" d="m222.72,152.4s6,7.39,6,7.39l2.05-1.56,1.41-1.2.37-.45-8-5.56s-1.07,1.1-1.18,1.1-.65.28-.65.28Z"/>
        <polygon class="cls-30" points="223.15 152.27 226.08 149.66 234.08 157.16 231.99 156.42 228.94 158.76 223.15 152.27"/>
        <path class="cls-30" d="m234.08,157.16c-.18-.34.17-7.01.17-7.01l3.3,1.81c-.15-.03-.25,5.63-.34,5.63s-1.88-1.93-1.88-1.93l-1.26,1.51Z"/>
        <polygon class="cls-27" points="248.17 173.8 247.55 160.57 250.51 173.23 248.17 173.8"/>
        <path class="cls-27" d="m222.51,175.72c.37-.07,2.26-.69,2.26-.69l-4.2-11.69,5.77,12.93-3.47,1.38-.36-1.93Z"/>
        <polygon class="cls-6" points="223.15 152.27 226.08 149.66 234.08 157.16 231.99 156.42 228.94 158.76 223.15 152.27"/>
        <path class="cls-6" d="m234.08,157.16c-.18-.34.17-7.01.17-7.01l3.3,1.81c-.15-.03-.25,5.63-.34,5.63s-1.88-1.93-1.88-1.93l-1.26,1.51Z"/>
        <polygon class="cls-4" points="238.62 168.09 239.96 174.69 243.88 176.11 246.52 173.8 246.04 167.57 238.62 168.09"/>
        <path class="cls-30" d="m234.56,156.58l-1.24.3s-.05.08-.02.03c.02-.03-.68,2.35-.68,2.35.2.18.87,1.33.94,1.31.08-.02,1.72-.17,1.72-.17l.6-1.74s-1.34-2.09-1.33-2.07Z"/>
        <path class="cls-27" d="m234.56,156.58l-1.24.3s-.05.08-.02.03c.02-.03-.68,2.35-.68,2.35.2.18.87,1.33.94,1.31.08-.02,1.72-.17,1.72-.17l.6-1.74s-1.34-2.09-1.33-2.07Z"/>
      </g>
      <g>
        <path class="cls-32" d="m220.89,166.03s2.94,19.56,4.64,21.39c2.87,3.09,17.08,11.29,17.08,11.29l7.09-2.49c.5-.16,1.05-.07,1.45.24l4.85,3.7-.46.39c-.2.17-.49.2-.73.09l-.75-.38.84.83-.27.23c-.27.22-.63.3-.98.21l-2.17-.58,2,1.33c-.45.38-1.07.51-1.64.34l-3.17-.9c-2.16.5-4.37.81-6.59.94-3.74.23-21.38-5.93-24.67-10.45-3.29-4.51-6.68-23.26-6.68-23.26l10.14-2.93Z"/>
        <g>
          <path class="cls-30" d="m211.5,179.05s-4.4-17.73,1.39-22.02c5.78-4.3,11.51,18.13,11.51,18.13l-12.9,3.89Z"/>
          <path class="cls-6" d="m211.5,179.05s-4.4-17.73,1.39-22.02c5.78-4.3,11.51,18.13,11.51,18.13l-12.9,3.89Z"/>
        </g>
      </g>
      <g>
        <path class="cls-26" d="m258.85,201.58h-22.49s0,0,0,0c0,.86.96,1.55,2.14,1.55h18.19s.02,0,.03,0c0,0,0,0,0,0h18.42c1.17,0,2.11-.7,2.1-1.55h-18.39Z"/>
        <path class="cls-26" d="m275.47,203.05h-20.55c-.35,0-.64-.23-.64-.52,0-.05.01-.11.03-.16l9.14-20.95c.23-.6.92-1.01,1.7-1.01h20.56c.35,0,.63.23.63.51,0,.06-.01.12-.04.17l-9.14,20.95c-.23.6-.92,1-1.7,1.01Z"/>
        <path class="cls-8" d="m285.72,180.41h-20.56c-.78,0-1.47.41-1.7,1.01l-8.8,20.16h-18.31s0,0,0,0c0,.86.96,1.55,2.14,1.55h18.19s.02,0,.03,0c0,0,0,0,0,0h18.42c.37,0,.71-.08,1.01-.2.48-.16.86-.48,1.02-.89l9.14-20.95c.02-.06.04-.11.04-.17,0-.28-.28-.51-.63-.51Z"/>
        <path class="cls-2" d="m273.37,191.56c-.44,1.01-1.34,1.7-2.01,1.56-.67-.14-.85-1.06-.42-2.07s1.34-1.68,2.01-1.54c.67.14.87,1.02.42,2.05Z"/>
        <g class="cls-22">
          <path d="m263.46,181.42l-8.8,20.16h.95l9.54-21.17c-.78,0-1.47.41-1.7,1.01Z"/>
        </g>
      </g>
      <g>
        <g>
          <polygon class="cls-32" points="264.52 224.82 277.76 226.95 279.88 221.49 265.97 217.15 264.52 224.82"/>
          <g>
            <path class="cls-26" d="m283.64,229.71l1.79-3.69s-.51-.68-.15-1.48c.2-.45,1.31-1.18,1.31-1.18l4.99-10.12s-.69-.34-1.05-.38c-.43-.04-.82-.04-1.17,0-1.22.16-2.18,1.11-2.86,1.84-1.15,1.22-5.1,4.24-5.1,4.24,0,0-1.12.71-2.86.66-.97-.03-1.76.33-2.03.74-.55.84-.27,1.59.5,2.13l.9.62c.2.94-.27,1.83-1.26,2.21,0,0-2.05,1.35-1.04,1.71.58.21,3.19,1.03,5.23,1.74.48.17.93.32,1.32.46h0c.88.3,1.48.51,1.48.51Z"/>
            <path class="cls-30" d="m283.44,217.25c-.06.03-.1.09-.09.16.03.32.15.62.35.89.1.14.35-.01.24-.16-.18-.24-.28-.51-.31-.78,0-.09-.1-.15-.18-.11,0,0,0,0,0,0Z"/>
            <path class="cls-30" d="m282.64,217.83c-.06.03-.1.09-.09.16.03.32.15.62.35.89.1.14.35-.01.24-.16-.18-.24-.28-.51-.31-.78,0-.09-.1-.15-.18-.11,0,0,0,0,0,0Z"/>
            <path class="cls-30" d="m281.85,218.44c-.06.03-.1.09-.09.16.03.32.15.62.35.89.1.14.35-.01.24-.16-.18-.24-.28-.51-.31-.78,0-.09-.1-.15-.18-.11,0,0,0,0,0,0Z"/>
          </g>
          <path class="cls-10" d="m285.28,224.53c.2-.45,1.31-1.18,1.31-1.18l4.99-10.12s-.69-.34-1.05-.38c-.2-.02-.39-.03-.57-.03l-8.03,16.3c.07.03.15.05.22.08h0c.88.3,1.48.51,1.48.51l1.79-3.69s-.51-.68-.15-1.48Z"/>
          <path class="cls-15" d="m281.92,218.59c-.37-.14-.73-.29-1.07-.49-.34-.2-.64-.47-.83-.82-.09-.16-.15-.36-.06-.52.1-.17.32-.21.51-.19.37.04.7.26.92.55.23.29.44,1.11.52,1.47"/>
          <path class="cls-15" d="m281.9,218.63c-.39-.02-.79-.04-1.18,0-.39.05-.78.17-1.09.41-.15.11-.28.27-.27.45.02.19.2.33.38.39.35.12.74.05,1.07-.12.33-.17.86-.83,1.08-1.13"/>
        </g>
        <path class="cls-26" d="m214.79,218.79c-2.85-4.55-9.31-16.86,3.79-19.26,13.09-2.4,56.83,18.39,56.83,18.39l-2.77,8.35-40.71-6.42s5.57,7.44-1.19,7.1c-9.83-.97-12.19-3.32-15.95-8.15Z"/>
        <path class="cls-25" d="m232.89,220.06l-11.17-3.51s9.37,5.73,12.81,6.41l-1.64-2.9Z"/>
      </g>
    </g>
  </g>
</svg>